<svg width="926" height="771" viewBox="0 0 926 771" fill="none" xmlns="http://www.w3.org/2000/svg">
<path d="M372.9 200.5C378.9 201.033 384.167 202.167 388.7 203.9C393.233 205.567 396.767 208.033 399.3 211.3C401.9 214.633 403.2 219 403.2 224.4C403.2 230.467 401.133 235.733 397 240.2C392.933 244.733 386.833 248.233 378.7 250.7C370.567 253.233 360.467 254.5 348.4 254.5C331.133 254.5 317.967 252 308.9 247C299.833 242 295.3 235.2 295.3 226.6C295.3 224 295.6 221.7 296.2 219.7C296.8 217.7 297.533 216.033 298.4 214.7L318.6 217.7C318.133 218.367 317.667 219.333 317.2 220.6C316.733 221.933 316.5 223.533 316.5 225.4C316.5 230.133 319.4 233.5 325.2 235.5C331 237.5 339.033 238.5 349.3 238.5C356.833 238.5 363.067 237.967 368 236.9C373 235.9 376.733 234.433 379.2 232.5C381.667 230.567 382.9 228.3 382.9 225.7C382.9 221.767 381.2 219.3 377.8 218.3C374.4 217.3 370.3 216.6 365.5 216.2L325.2 212.9C318.2 212.3 312.467 210.2 308 206.6C303.6 203 301.4 198.467 301.4 193C301.4 189.6 302.267 186.433 304 183.5C305.733 180.567 307.733 178.1 310 176.1C312.333 174.1 314.333 172.867 316 172.4L330.2 179.2C328.667 179.4 326.8 180.433 324.6 182.3C322.467 184.1 321.4 186.233 321.4 188.7C321.4 190.967 322.333 192.833 324.2 194.3C326.133 195.767 329.867 196.733 335.4 197.2L372.9 200.5ZM386.2 102.8H405.9L397.8 144.3C396.333 152.033 393.633 159.033 389.7 165.3C385.833 171.5 380.567 176.4 373.9 180C367.3 183.6 359.067 185.4 349.2 185.4C338.933 185.4 330.1 183.633 322.7 180.1C315.3 176.567 309.6 171.667 305.6 165.4C301.667 159.067 299.7 151.867 299.7 143.8C299.7 135.6 301.733 128.267 305.8 121.8C309.933 115.333 315.6 110.267 322.8 106.6C330.067 102.933 338.367 101.1 347.7 101.1C355.567 101.1 362.533 102.433 368.6 105.1C374.733 107.767 379.6 111.167 383.2 115.3C386.8 119.433 388.767 123.733 389.1 128.2L382.9 128.9L386.2 102.8ZM349.1 167.7C354.9 167.7 359.9 166.767 364.1 164.9C368.3 162.967 371.533 160.2 373.8 156.6C376.067 152.933 377.2 148.533 377.2 143.4C377.2 138.333 376.067 134 373.8 130.4C371.533 126.733 368.3 123.933 364.1 122C359.9 120 354.933 119 349.2 119C343.667 119 338.767 120.033 334.5 122.1C330.3 124.1 327 126.933 324.6 130.6C322.2 134.267 321 138.633 321 143.7C321 148.767 322.133 153.1 324.4 156.7C326.667 160.233 329.9 162.967 334.1 164.9C338.3 166.767 343.3 167.7 349.1 167.7ZM426.442 209V102.8H448.142V136.7L442.342 134.1C442.809 129.767 443.909 125.633 445.642 121.7C447.376 117.767 449.676 114.267 452.542 111.2C455.476 108.067 459.076 105.6 463.342 103.8C467.609 102 472.542 101.1 478.142 101.1C482.409 101.1 485.842 101.433 488.442 102.1C491.109 102.767 492.742 103.3 493.342 103.7L488.742 124.1C488.076 123.633 486.709 123.033 484.642 122.3C482.642 121.567 479.842 121.2 476.242 121.2C470.776 121.2 466.242 122.167 462.642 124.1C459.042 126.033 456.176 128.6 454.042 131.8C451.909 135 450.376 138.5 449.442 142.3C448.576 146.033 448.142 149.8 448.142 153.6V209H426.442ZM511.117 209V102.8H532.517V209H511.117ZM521.917 80.8C518.184 80.8 514.951 79.8 512.217 77.8C509.551 75.7333 508.217 72.9 508.217 69.3C508.217 65.7667 509.551 63 512.217 61C514.951 58.9333 518.184 57.9 521.917 57.9C525.584 57.9 528.751 58.9333 531.417 61C534.151 63 535.517 65.7667 535.517 69.3C535.517 72.9 534.151 75.7333 531.417 77.8C528.751 79.8 525.584 80.8 521.917 80.8ZM577.903 190.5H639.103V209H554.203V191.3L614.503 120.6L614.803 121.3H556.503V102.8H638.103V120.5L578.203 191L577.903 190.5ZM673.331 209V120.8H650.431V102.8H673.331V91.2C673.331 85.7333 673.998 80.8333 675.331 76.5C676.731 72.1667 678.665 68.4333 681.131 65.3C683.598 62.1 686.498 59.4667 689.831 57.4C693.231 55.3333 696.931 53.8 700.931 52.8C704.998 51.7333 709.231 51.2 713.631 51.2C717.231 51.2 720.031 51.4333 722.031 51.9C724.098 52.3 725.465 52.6667 726.131 53V71.1C725.331 70.8333 723.965 70.5333 722.031 70.2C720.098 69.8667 718.031 69.7 715.831 69.7C711.565 69.7 708.065 70.3333 705.331 71.6C702.598 72.8667 700.465 74.6333 698.931 76.9C697.398 79.1 696.331 81.6667 695.731 84.6C695.198 87.4667 694.931 90.5333 694.931 93.8V102.8H725.131V120.8H694.931V209H673.331ZM743.731 209V102.8H765.131V209H743.731ZM754.531 80.8C750.798 80.8 747.565 79.8 744.831 77.8C742.165 75.7333 740.831 72.9 740.831 69.3C740.831 65.7667 742.165 63 744.831 61C747.565 58.9333 750.798 57.9 754.531 57.9C758.198 57.9 761.365 58.9333 764.031 61C766.765 63 768.131 65.7667 768.131 69.3C768.131 72.9 766.765 75.7333 764.031 77.8C761.365 79.8 758.198 80.8 754.531 80.8ZM839.42 210.8C835.887 210.8 832.354 210.433 828.82 209.7C825.354 208.967 822.154 207.633 819.22 205.7C816.354 203.7 814.054 200.867 812.32 197.2C810.587 193.533 809.72 188.733 809.72 182.8C809.72 181.4 809.72 179.933 809.72 178.4C809.72 176.867 809.72 175.3 809.72 173.7V120.8H784.22V102.8H797.62C800.487 102.8 802.72 102.7 804.32 102.5C805.987 102.233 807.187 101.667 807.92 100.8C808.72 99.8667 809.22 98.4 809.42 96.4C809.62 94.4 809.72 91.6667 809.72 88.2V67.7H831.42V102.8H863.92V120.8H831.42V167.9C831.42 169.233 831.42 170.567 831.42 171.9C831.42 173.233 831.42 174.467 831.42 175.6C831.42 180.933 832.054 185.133 833.32 188.2C834.654 191.267 837.654 192.8 842.32 192.8C844.32 192.8 846.22 192.633 848.02 192.3C849.82 191.967 851.187 191.6 852.12 191.2V208.9C850.92 209.367 849.22 209.8 847.02 210.2C844.82 210.6 842.287 210.8 839.42 210.8Z" fill="black"/>
<rect x="54.5942" y="54" width="200" height="200" rx="30" fill="#CF1010"/>
<path d="M230.048 190.76C230.048 189.845 229.896 189.082 229.743 188.319C229.133 185.878 227.76 183.59 225.776 182.064L222.42 179.318L191.907 151.857V136.6L150.715 96.9337L158.343 86.2543L151.936 81.5248C144.002 75.7274 133.323 76.0325 125.695 81.9825L120.202 86.2543H82.3668C70.9245 87.6274 54.6002 94.3401 54.6002 94.3401V208.305C54.6002 218 50.5983 247.667 63.2611 247.667L92.2834 215.628C101.285 206.169 115.778 204.796 126.305 212.424L135.459 218.984H147.359L147.511 219.137L211.741 218.984L227.76 197.626C228.065 197.168 228.523 196.558 228.675 196.1C229.285 195.032 229.59 193.812 229.743 192.744C230.048 191.981 230.048 191.37 230.048 190.76Z" fill="white"/>
<path d="M228.669 178.11L225.313 175.516L196.478 149.58V136.307C196.478 135.087 196.021 133.866 195.105 132.951L156.659 96.0306L161.999 88.7075C163.372 86.7242 163.067 83.978 161.084 82.4524L156.049 78.3332C144.912 69.6371 129.045 70.5525 119.129 80.4691L118.366 81.3845H103.109C89.8364 81.3845 76.5634 83.0627 63.5955 86.2665L58.2558 87.6396L54.5942 88.6665C54.5942 88.7832 54.5942 97.6665 54.5942 97.6665C54.5942 97.6665 59.934 96.6408 60.2391 96.4882L65.7314 95.1152C77.9364 92.0639 90.4466 90.5383 102.957 90.5383H104.025C105.856 90.5383 106.771 92.8267 105.55 94.0472L104.94 94.81C103.415 96.3357 102.957 98.9293 104.177 100.76C105.856 103.201 109.212 103.506 111.195 101.523L125.536 87.1819C131.639 81.0793 141.25 80.0114 148.573 84.4357C148.726 84.5883 149.184 84.8934 149.641 85.1986C151.014 86.2665 151.319 88.0973 150.252 89.4703L142.471 100.15C141.098 101.981 141.25 104.574 142.776 106.252C143.691 107.168 144.912 107.625 146.132 107.625C147.505 107.625 148.878 107.015 149.794 105.795C150.557 104.727 152.082 104.574 152.845 105.489L187.324 138.291V151.564C187.324 152.937 187.935 154.157 188.85 154.92L219.363 182.381L219.515 182.534L222.872 185.28C224.397 186.501 225.313 188.484 225.313 190.467C225.313 191.84 224.855 193.366 223.94 194.434L209.294 213.962H136.978L129.045 208.317C116.688 199.469 99.4479 200.994 89.0736 211.979L74.4275 227.54C74.4275 227.54 58.5931 245.083 58.2604 245.375C57.9277 245.667 60.261 248 60.261 248L62.5944 250L64.5944 251.333L80.9877 234.1L95.7864 218.539C103.109 210.758 115.162 209.69 123.705 215.945L132.707 222.506C133.47 223.116 134.385 223.421 135.453 223.421H211.735C213.108 223.421 214.481 222.811 215.396 221.59L231.263 200.384C232.788 198.401 233.856 196.112 234.314 193.671C235.382 187.569 233.246 181.771 228.669 178.11Z" fill="black"/>
<path d="M173.6 159.485C172.685 159.485 171.922 159.179 171.006 158.722L161.853 152.619C159.717 151.246 159.107 148.347 160.632 146.212C162.005 144.076 164.904 143.465 167.04 144.991L176.194 151.094C178.33 152.467 178.94 155.365 177.414 157.501C176.499 158.722 175.126 159.485 173.6 159.485Z" fill="black"/>
<path d="M70.9247 229.359C69.8568 229.359 68.6363 228.901 67.7209 228.138C65.8901 226.46 65.8901 223.561 67.5683 221.73L82.367 206.169C92.2836 195.642 107.235 191.523 121.271 195.184C123.712 195.795 125.237 198.388 124.474 200.829C123.864 203.27 121.271 204.796 118.83 204.033C107.998 201.134 96.5554 204.338 88.9272 212.424L74.1286 227.985C73.3657 228.901 72.1452 229.359 70.9247 229.359Z" fill="#CCCCCC"/>
<g clip-path="url(#clip0_538_314)">
<g opacity="0.7">
<path d="M541.559 473.058C541.612 457.238 537.824 441.642 530.522 427.609C527.055 421.019 523.893 416.922 521.432 414.409C520.504 413.425 519.292 412.755 517.965 412.493C516.638 412.231 515.262 412.39 514.03 412.948C513.045 413.296 512.156 413.869 511.433 414.623C508.141 418.032 505.168 422.538 502.57 427.336C494.888 441.697 490.901 457.745 490.968 474.032V483.81H484.696V370.187C484.696 346.371 479.365 322.874 468.925 302.013C463.978 292.137 459.465 286.002 455.992 282.23C455.15 281.271 454.113 280.502 452.951 279.976C451.789 279.45 450.528 279.177 449.252 279.177C447.976 279.177 446.715 279.45 445.553 279.976C444.391 280.502 443.354 281.271 442.513 282.23C437.812 287.339 433.572 294.092 429.865 301.273C418.885 322.563 413.308 346.722 413.308 371.245V483.81H407.887V473.564C407.954 457.277 403.967 441.23 396.284 426.869C393.687 422.077 390.713 417.571 387.422 414.156C386.474 413.158 385.234 412.487 383.88 412.239C382.527 411.992 381.129 412.181 379.89 412.779L380.117 412.903C379.322 413.254 378.603 413.757 378.001 414.383C375.566 416.896 372.404 420.993 368.911 427.583C361.608 441.616 357.821 457.212 357.873 473.032V642.908H377.221L375.111 656.874V698.629H390.928V656.874L388.818 642.908H407.887V488.205H413.308V642.213H428.761L426.54 656.868V698.629H442.363V656.874L440.143 642.22H460.965L458.744 656.874V698.629H474.567V656.874L472.347 642.22H484.683V488.205H490.955V643.142H496.039V642.908H512.848L510.738 656.874V698.629H526.561V656.874L524.451 642.908H541.559V473.058Z" fill="url(#paint0_linear_538_314)"/>
</g>
<path d="M394.077 648.733H379.098L381.773 630.546H391.402L394.077 648.733Z" fill="#535461"/>
<g opacity="0.1">
<path d="M381.026 637.766H392.148L391.402 632.682H381.773L381.026 637.766Z" fill="black"/>
</g>
<path d="M522.477 648.733H507.499L510.174 630.546H519.802L522.477 648.733Z" fill="#535461"/>
<g opacity="0.1">
<path d="M509.427 637.766H520.549L519.802 632.682H510.173L509.427 637.766Z" fill="black"/>
</g>
<path d="M442.766 648.733H427.781L430.456 630.546H440.091L442.766 648.733Z" fill="#535461"/>
<g opacity="0.1">
<path d="M429.709 637.766H440.838L440.091 632.682H430.456L429.709 637.766Z" fill="black"/>
</g>
<path d="M473.256 648.733H458.277L460.952 630.546H470.581L473.256 648.733Z" fill="#535461"/>
<g opacity="0.1">
<path d="M460.206 637.766H471.334L470.581 632.682H460.952L460.206 637.766Z" fill="black"/>
</g>
<path d="M501.077 480.207H394.077V484.485H501.077V480.207Z" fill="#535461"/>
<path d="M517.621 412.597C517.055 411.973 516.366 411.474 515.596 411.133C514.826 410.792 513.993 410.615 513.151 410.615C512.308 410.615 511.475 410.792 510.706 411.133C509.936 411.474 509.246 411.973 508.68 412.597C505.564 415.915 502.752 420.304 500.292 424.973C493.01 439.011 489.242 454.607 489.312 470.422V635.136H536.664V469.74C536.724 454.359 533.139 439.182 526.204 425.453C522.919 419.038 519.926 415.045 517.621 412.597Z" fill="#E0E0E0"/>
<path d="M381.838 412.597C382.403 411.973 383.093 411.474 383.863 411.133C384.633 410.792 385.466 410.615 386.308 410.615C387.15 410.615 387.983 410.792 388.753 411.133C389.523 411.474 390.213 411.973 390.778 412.597C393.895 415.915 396.706 420.304 399.167 424.973C406.449 439.011 410.216 454.607 410.146 470.422V635.136H362.781V469.74C362.722 454.359 366.306 439.182 373.241 425.453C376.52 419.038 379.513 415.045 381.838 412.597Z" fill="#E0E0E0"/>
<path d="M363.048 473.253L374.28 473.305V487.16H363.048V473.253Z" fill="#535461"/>
<path d="M398.895 473.253L410.127 473.305V487.16H398.895V473.253Z" fill="#535461"/>
<path d="M489.306 473.253L500.545 473.305V487.16H489.306V473.253Z" fill="#535461"/>
<path d="M525.152 473.253L536.391 473.305V487.16H525.152V473.253Z" fill="#535461"/>
<g opacity="0.1">
<path d="M399.147 424.758C396.693 420.09 393.875 415.701 390.759 412.383C389.878 411.41 388.703 410.753 387.414 410.51C386.124 410.267 384.791 410.453 383.617 411.039C384.293 411.377 384.904 411.832 385.422 412.383C388.538 415.701 391.35 420.09 393.81 424.758C401.092 438.797 404.86 454.393 404.79 470.208V634.909H410.14V470.227C410.209 454.405 406.437 438.802 399.147 424.758V424.758Z" fill="black"/>
</g>
<g opacity="0.1">
<path d="M504.551 425.213C507.005 420.545 509.823 416.156 512.94 412.838C513.523 412.21 514.228 411.706 515.011 411.358C513.854 410.851 512.566 410.721 511.331 410.987C510.096 411.252 508.975 411.9 508.129 412.838C505.012 416.156 502.201 420.545 499.74 425.213C492.458 439.252 488.691 454.848 488.761 470.662V635.364H493.578V470.688C493.502 454.865 497.267 439.26 504.551 425.213V425.213Z" fill="black"/>
</g>
<path d="M394.077 648.732H379.098V689.39H394.077V648.732Z" fill="url(#paint1_linear_538_314)"/>
<path d="M442.76 648.732H427.781V689.39H442.76V648.732Z" fill="url(#paint2_linear_538_314)"/>
<path d="M473.256 648.732H458.277V689.39H473.256V648.732Z" fill="url(#paint3_linear_538_314)"/>
<path d="M522.477 648.732H507.499V689.39H522.477V648.732Z" fill="url(#paint4_linear_538_314)"/>
<path d="M455.66 283.457C454.878 282.527 453.901 281.779 452.799 281.266C451.697 280.753 450.497 280.487 449.281 280.487C448.066 280.487 446.865 280.753 445.763 281.266C444.661 281.779 443.685 282.527 442.902 283.457C438.454 288.43 434.461 295.007 430.929 302.007C420.541 322.744 415.256 346.281 415.256 370.148V634.461H482.839V369.083C482.839 345.891 477.794 322.985 467.906 302.721C463.224 293.105 458.952 287.132 455.66 283.457Z" fill="#EEEEEE"/>
<path d="M459.069 312.817H438.091C434.147 312.817 430.949 316.014 430.949 319.959V321.835C430.949 325.78 434.147 328.977 438.091 328.977H459.069C463.014 328.977 466.211 325.78 466.211 321.835V319.959C466.211 316.014 463.014 312.817 459.069 312.817Z" fill="#14D8FD"/>
<g opacity="0.7">
<path d="M606.487 684.949C604.269 671.577 597.094 659.533 586.392 651.215C575.69 642.898 562.246 638.919 548.741 640.072C535.236 641.224 522.661 647.423 513.523 657.434C504.385 667.444 499.355 680.53 499.434 694.084C499.434 694.35 499.434 694.61 499.434 694.876C497.441 695.178 495.468 695.601 493.526 696.142C491.039 686.237 485.534 677.351 477.772 670.713C470.011 664.075 460.378 660.015 450.207 659.094C440.037 658.173 429.831 660.437 421.004 665.573C412.177 670.709 405.165 678.463 400.939 687.76C396.584 686.08 392.01 685.035 387.357 684.657V684.657C386.615 680.443 385.37 676.334 383.649 672.418C382.842 660.059 377.404 648.46 368.422 639.933C359.44 631.407 347.574 626.58 335.19 626.416C322.807 626.253 310.817 630.763 301.612 639.049C292.408 647.335 286.665 658.787 285.531 671.119C282.982 676.518 281.353 682.305 280.713 688.241C269.443 692.93 260.314 701.636 255.098 712.672C249.881 723.708 248.946 736.288 252.476 747.974H646.963C649.019 741.158 649.573 733.977 648.587 726.926C647.601 719.876 645.098 713.122 641.251 707.132C637.404 701.142 632.304 696.056 626.303 692.227C620.301 688.397 613.54 685.914 606.487 684.949V684.949Z" fill="url(#paint5_linear_538_314)"/>
</g>
<path d="M339.064 723.386C365.179 723.386 386.35 702.215 386.35 676.099C386.35 649.983 365.179 628.812 339.064 628.812C312.948 628.812 291.777 649.983 291.777 676.099C291.777 702.215 312.948 723.386 339.064 723.386Z" fill="url(#paint6_linear_538_314)"/>
<path d="M338.83 745.611C367.427 745.611 390.61 722.428 390.61 693.831C390.61 665.234 367.427 642.051 338.83 642.051C310.233 642.051 287.05 665.234 287.05 693.831C287.05 722.428 310.233 745.611 338.83 745.611Z" fill="url(#paint7_linear_538_314)"/>
<path d="M549.26 745.611C577.857 745.611 601.04 722.428 601.04 693.831C601.04 665.234 577.857 642.051 549.26 642.051C520.663 642.051 497.48 665.234 497.48 693.831C497.48 722.428 520.663 745.611 549.26 745.611Z" fill="url(#paint8_linear_538_314)"/>
<path d="M546.656 745.61C572.772 745.61 593.943 724.44 593.943 698.324C593.943 672.208 572.772 651.037 546.656 651.037C520.541 651.037 499.37 672.208 499.37 698.324C499.37 724.44 520.541 745.61 546.656 745.61Z" fill="url(#paint9_linear_538_314)"/>
<path d="M493.221 707.31C493.229 714.788 491.459 722.16 488.059 728.82C484.659 735.48 479.726 741.237 473.665 745.617H418.197C411.632 740.872 406.395 734.521 402.989 727.171C399.582 719.822 398.12 711.721 398.742 703.645C399.364 695.568 402.049 687.787 406.541 681.046C411.033 674.305 417.18 668.83 424.394 665.146C431.608 661.462 439.648 659.692 447.742 660.006C455.837 660.32 463.715 662.708 470.622 666.939C477.529 671.171 483.234 677.106 487.19 684.174C491.146 691.243 493.22 699.209 493.214 707.31H493.221Z" fill="url(#paint10_linear_538_314)"/>
<path d="M551.864 741.358C551.864 742.773 551.801 744.173 551.675 745.559C551.68 745.578 551.68 745.598 551.675 745.617H457.478C457.349 744.214 457.284 742.793 457.284 741.364C457.276 730.049 461.329 719.106 468.707 710.527C476.085 701.948 486.298 696.302 497.487 694.616C499.825 694.265 502.186 694.087 504.551 694.084C505.759 694.084 506.96 694.129 508.148 694.214C516.623 694.862 524.768 697.781 531.726 702.664C538.683 707.547 544.197 714.214 547.689 721.964C547.883 722.392 548.072 722.827 548.247 723.262C550.635 728.996 551.864 735.146 551.864 741.358V741.358Z" fill="url(#paint11_linear_538_314)"/>
<path d="M641.236 731.898C641.242 736.544 640.559 741.165 639.211 745.611H548.702C546.514 738.339 546.097 730.65 547.488 723.185C547.566 722.776 547.643 722.36 547.734 721.957C550.013 711.385 555.845 701.913 564.259 695.119C572.673 688.325 583.161 684.618 593.976 684.618C595.463 684.618 596.923 684.683 598.371 684.825C599.021 684.877 599.67 684.955 600.319 685.04C611.653 686.582 622.043 692.179 629.566 700.794C637.09 709.41 641.236 720.46 641.236 731.898V731.898Z" fill="url(#paint12_linear_538_314)"/>
<path d="M350.757 745.617C350.913 745.124 351.05 744.63 351.186 744.131C353.338 736.08 353.327 727.603 351.152 719.558C348.976 711.513 344.715 704.185 338.799 698.316C332.883 692.446 325.521 688.243 317.46 686.132C309.398 684.021 300.921 684.077 292.887 686.293C291.006 686.809 289.161 687.447 287.362 688.202C276.533 692.707 267.762 701.073 262.75 711.678C257.738 722.282 256.842 734.37 260.235 745.598H350.757V745.617Z" fill="url(#paint13_linear_538_314)"/>
<g opacity="0.7">
<path d="M623.264 648.362C628.055 648.362 631.938 644.479 631.938 639.688C631.938 634.897 628.055 631.014 623.264 631.014C618.473 631.014 614.59 634.897 614.59 639.688C614.59 644.479 618.473 648.362 623.264 648.362Z" fill="url(#paint14_linear_538_314)"/>
</g>
<path d="M623.264 647.726C627.703 647.726 631.302 644.127 631.302 639.688C631.302 635.249 627.703 631.65 623.264 631.65C618.825 631.65 615.226 635.249 615.226 639.688C615.226 644.127 618.825 647.726 623.264 647.726Z" fill="url(#paint15_linear_538_314)"/>
<g opacity="0.7">
<path d="M662.987 732.846C668.211 732.846 672.447 728.61 672.447 723.386C672.447 718.161 668.211 713.926 662.987 713.926C657.762 713.926 653.527 718.161 653.527 723.386C653.527 728.61 657.762 732.846 662.987 732.846Z" fill="url(#paint16_linear_538_314)"/>
</g>
<path d="M662.987 732.372C667.95 732.372 671.973 728.349 671.973 723.386C671.973 718.423 667.95 714.4 662.987 714.4C658.024 714.4 654.001 718.423 654.001 723.386C654.001 728.349 658.024 732.372 662.987 732.372Z" fill="url(#paint17_linear_538_314)"/>
<g opacity="0.7">
<path d="M258.203 679.872C263.944 679.872 268.598 675.218 268.598 669.477C268.598 663.736 263.944 659.082 258.203 659.082C252.462 659.082 247.808 663.736 247.808 669.477C247.808 675.218 252.462 679.872 258.203 679.872Z" fill="url(#paint18_linear_538_314)"/>
</g>
<path d="M258.203 679.404C263.686 679.404 268.13 674.96 268.13 669.477C268.13 663.994 263.686 659.549 258.203 659.549C252.72 659.549 248.275 663.994 248.275 669.477C248.275 674.96 252.72 679.404 258.203 679.404Z" fill="url(#paint19_linear_538_314)"/>
<g opacity="0.4">
<path d="M649.813 259.343C647.509 256.298 644.622 253.742 641.32 251.824C637.533 249.648 633.296 248.371 628.937 248.091C624.577 247.812 620.212 248.538 616.177 250.213C612.143 251.888 608.547 254.467 605.668 257.753C602.788 261.038 600.702 264.94 599.57 269.16C598.438 273.379 598.291 277.802 599.139 282.087C599.987 286.372 601.809 290.405 604.463 293.875C607.117 297.344 610.533 300.158 614.447 302.098C618.361 304.038 622.668 305.053 627.036 305.065C627.64 305.065 628.244 305.065 628.841 305.006C633.981 304.682 638.937 302.972 643.182 300.057C647.428 297.143 650.805 293.133 652.954 288.453C655.104 283.773 655.945 278.599 655.39 273.479C654.835 268.359 652.903 263.485 649.8 259.375L649.813 259.343Z" fill="url(#paint20_linear_538_314)"/>
</g>
<path opacity="0.2" d="M654.001 276.516C654.002 283.369 651.392 289.965 646.702 294.961C642.013 299.958 635.596 302.981 628.757 303.416C628.192 303.455 627.621 303.474 627.05 303.474C622.917 303.472 618.84 302.519 615.134 300.689C611.429 298.86 608.193 296.203 605.679 292.923C603.164 289.644 601.437 285.83 600.631 281.776C599.826 277.723 599.963 273.538 601.033 269.547C602.102 265.555 604.076 261.862 606.8 258.755C609.525 255.647 612.928 253.208 616.745 251.626C620.563 250.043 624.694 249.36 628.818 249.628C632.941 249.897 636.948 251.11 640.529 253.175V253.175C643.651 254.988 646.381 257.405 648.56 260.284V260.284C652.099 264.955 654.01 270.656 654.001 276.516V276.516Z" fill="#14D8FD"/>
<path opacity="0.05" d="M620.414 259.421C619.021 260.021 617.678 260.729 616.395 261.537C615.538 262.012 614.803 262.679 614.246 263.485C613.974 263.889 613.824 264.363 613.815 264.851C613.806 265.338 613.937 265.817 614.194 266.232C614.843 267.128 616.142 267.27 617.226 267.329C618.222 267.54 619.257 267.484 620.225 267.164C621.192 266.845 622.057 266.274 622.732 265.511L625.05 263.407C625.855 262.68 626.738 261.674 626.387 260.648C626.121 259.862 625.238 259.479 624.439 259.349C622.447 258.957 620.38 259.32 618.641 260.369" fill="#F55F44"/>
<path opacity="0.05" d="M610.733 288.573C611.515 288.573 612.149 287.939 612.149 287.158C612.149 286.376 611.515 285.742 610.733 285.742C609.952 285.742 609.318 286.376 609.318 287.158C609.318 287.939 609.952 288.573 610.733 288.573Z" fill="#F55F44"/>
<path opacity="0.05" d="M639.581 283.373C642.453 283.373 644.781 281.044 644.781 278.172C644.781 275.3 642.453 272.971 639.581 272.971C636.708 272.971 634.38 275.3 634.38 278.172C634.38 281.044 636.708 283.373 639.581 283.373Z" fill="#F55F44"/>
<path opacity="0.05" d="M648.566 260.278C648.546 261.637 648.135 262.961 647.384 264.094C646.633 265.226 645.572 266.119 644.328 266.666C643.084 267.213 641.709 267.392 640.366 267.181C639.024 266.969 637.77 266.377 636.755 265.473C635.739 264.57 635.004 263.395 634.637 262.086C634.271 260.777 634.287 259.391 634.685 258.091C635.083 256.792 635.846 255.634 636.883 254.756C637.92 253.877 639.188 253.315 640.535 253.136V253.136C643.66 254.959 646.391 257.387 648.566 260.278V260.278Z" fill="#F55F44"/>
<path opacity="0.05" d="M649.086 292.04C646.767 295.34 643.736 298.075 640.217 300.044C636.698 302.013 632.782 303.165 628.757 303.416C628.725 303.046 628.705 302.669 628.705 302.292C628.706 299.927 629.364 297.608 630.606 295.594C631.847 293.58 633.624 291.951 635.737 290.888C637.851 289.825 640.218 289.37 642.575 289.573C644.932 289.777 647.186 290.631 649.086 292.04V292.04Z" fill="#F55F44"/>
<path opacity="0.25" d="M631.302 475.129C633.131 475.129 634.614 473.647 634.614 471.818C634.614 469.989 633.131 468.507 631.302 468.507C629.474 468.507 627.991 469.989 627.991 471.818C627.991 473.647 629.474 475.129 631.302 475.129Z" fill="#535461"/>
<path opacity="0.25" d="M189.796 562.132C191.624 562.132 193.107 560.649 193.107 558.821C193.107 556.992 191.624 555.509 189.796 555.509C187.967 555.509 186.484 556.992 186.484 558.821C186.484 560.649 187.967 562.132 189.796 562.132Z" fill="#535461"/>
<path opacity="0.25" d="M759.21 580.961C761.039 580.961 762.521 579.478 762.521 577.65C762.521 575.821 761.039 574.338 759.21 574.338C757.381 574.338 755.898 575.821 755.898 577.65C755.898 579.478 757.381 580.961 759.21 580.961Z" fill="#535461"/>
<path opacity="0.25" d="M349.465 424.057C351.294 424.057 352.776 422.575 352.776 420.746C352.776 418.917 351.294 417.435 349.465 417.435C347.636 417.435 346.154 418.917 346.154 420.746C346.154 422.575 347.636 424.057 349.465 424.057Z" fill="#535461"/>
<path opacity="0.25" d="M338.59 347.923C340.418 347.923 341.901 346.441 341.901 344.612C341.901 342.783 340.418 341.301 338.59 341.301C336.761 341.301 335.278 342.783 335.278 344.612C335.278 346.441 336.761 347.923 338.59 347.923Z" fill="#535461"/>
<path opacity="0.25" d="M244.958 498.77C246.787 498.77 248.269 497.287 248.269 495.458C248.269 493.629 246.787 492.147 244.958 492.147C243.129 492.147 241.646 493.629 241.646 495.458C241.646 497.287 243.129 498.77 244.958 498.77Z" fill="#535461"/>
<path opacity="0.25" d="M713.351 499.347H710.403V496.406H709.202V499.347H706.254V500.555H709.202V503.496H710.403V500.555H713.351V499.347Z" fill="#535461"/>
<path opacity="0.25" d="M762.696 397.411H759.748V394.47H758.547V397.411H755.6V398.619H758.547V401.56H759.748V398.619H762.696V397.411Z" fill="#535461"/>
<path opacity="0.25" d="M552.571 340.463H549.623V337.516H548.422V340.463H545.475V341.664H548.422V344.612H549.623V341.664H552.571V340.463Z" fill="#535461"/>
<path opacity="0.25" d="M681.193 482.797H678.245V479.856H677.044V482.797H674.103V484.005H677.044V486.946H678.245V484.005H681.193V482.797Z" fill="#535461"/>
<path opacity="0.25" d="M573.374 580.682H570.433V577.741H569.231V580.682H566.284V581.89H569.231V584.831H570.433V581.89H573.374V580.682Z" fill="#535461"/>
<path opacity="0.25" d="M271.682 378.764H268.734V375.823H267.533V378.764H264.585V379.965H267.533V382.913H268.734V379.965H271.682V378.764Z" fill="#535461"/>
<path opacity="0.25" d="M169.097 417.071H166.149V414.13H164.948V417.071H162V418.272H164.948V421.22H166.149V418.272H169.097V417.071Z" fill="#535461"/>
<path opacity="0.25" d="M312.346 537.654H309.398V534.707H308.197V537.654H305.256V538.855H308.197V541.803H309.398V538.855H312.346V537.654Z" fill="#535461"/>
<path d="M662.987 732.372C667.95 732.372 671.973 728.349 671.973 723.386C671.973 718.423 667.95 714.4 662.987 714.4C658.024 714.4 654.001 718.423 654.001 723.386C654.001 728.349 658.024 732.372 662.987 732.372Z" fill="url(#paint21_linear_538_314)"/>
<g opacity="0.4">
<path d="M336.629 474.155C335.532 472.704 334.157 471.486 332.584 470.571C330.78 469.521 328.758 468.901 326.676 468.759C324.594 468.617 322.506 468.957 320.577 469.752C318.647 470.547 316.926 471.776 315.548 473.344C314.17 474.912 313.172 476.776 312.632 478.792C312.091 480.808 312.022 482.921 312.431 484.968C312.839 487.015 313.714 488.94 314.987 490.594C316.259 492.248 317.897 493.587 319.771 494.506C321.645 495.425 323.705 495.9 325.792 495.893C326.078 495.893 326.37 495.893 326.649 495.893C329.096 495.737 331.455 494.921 333.475 493.532C335.496 492.144 337.103 490.234 338.126 488.006C339.149 485.778 339.55 483.315 339.286 480.878C339.023 478.44 338.105 476.12 336.629 474.162V474.155Z" fill="url(#paint22_linear_538_314)"/>
</g>
<path opacity="0.2" d="M338.622 482.336C338.622 485.6 337.379 488.741 335.145 491.121C332.911 493.501 329.855 494.94 326.598 495.146C326.331 495.146 326.059 495.146 325.786 495.146C323.818 495.144 321.877 494.69 320.113 493.818C318.349 492.947 316.808 491.681 315.611 490.119C314.414 488.557 313.592 486.741 313.209 484.811C312.825 482.88 312.891 480.888 313.4 478.987C313.91 477.086 314.85 475.328 316.147 473.848C317.444 472.369 319.064 471.207 320.882 470.453C322.7 469.699 324.667 469.374 326.63 469.501C328.594 469.629 330.502 470.206 332.207 471.188V471.188C333.693 472.052 334.993 473.201 336.032 474.571V474.571C337.724 476.805 338.634 479.534 338.622 482.336V482.336Z" fill="#14D8FD"/>
<path opacity="0.1" d="M322.624 474.194C321.949 474.478 321.298 474.815 320.676 475.201C320.269 475.423 319.918 475.736 319.65 476.116C319.527 476.31 319.461 476.535 319.461 476.765C319.461 476.995 319.527 477.221 319.65 477.415C319.839 477.6 320.066 477.742 320.314 477.832C320.563 477.921 320.828 477.956 321.092 477.934C321.562 478.03 322.05 478.001 322.506 477.85C322.962 477.698 323.37 477.429 323.689 477.071L324.793 476.071C325.176 475.72 325.598 475.246 325.442 474.772C325.355 474.593 325.223 474.439 325.059 474.325C324.896 474.211 324.705 474.142 324.507 474.123C323.559 473.937 322.575 474.111 321.747 474.61" fill="#F55F44"/>
<path opacity="0.1" d="M318.014 488.076C318.387 488.076 318.689 487.773 318.689 487.4C318.689 487.027 318.387 486.725 318.014 486.725C317.641 486.725 317.339 487.027 317.339 487.4C317.339 487.773 317.641 488.076 318.014 488.076Z" fill="#F55F44"/>
<path opacity="0.1" d="M331.753 485.602C333.122 485.602 334.233 484.492 334.233 483.122C334.233 481.752 333.122 480.642 331.753 480.642C330.383 480.642 329.272 481.752 329.272 483.122C329.272 484.492 330.383 485.602 331.753 485.602Z" fill="#F55F44"/>
<path opacity="0.1" d="M336.031 474.629C336.023 475.276 335.829 475.907 335.473 476.447C335.117 476.987 334.613 477.413 334.021 477.674C333.43 477.936 332.776 478.022 332.136 477.923C331.497 477.823 330.9 477.542 330.416 477.113C329.932 476.684 329.582 476.125 329.406 475.503C329.23 474.88 329.237 474.22 329.426 473.602C329.615 472.983 329.977 472.432 330.47 472.013C330.963 471.594 331.566 471.326 332.207 471.24V471.24C333.694 472.106 334.994 473.258 336.031 474.629V474.629Z" fill="#F55F44"/>
<path opacity="0.1" d="M336.285 489.731C335.181 491.303 333.738 492.607 332.062 493.545C330.386 494.484 328.521 495.033 326.604 495.153C326.604 494.978 326.604 494.796 326.604 494.614C326.6 493.482 326.913 492.371 327.506 491.407C328.099 490.443 328.949 489.663 329.961 489.156C330.973 488.649 332.107 488.434 333.234 488.535C334.362 488.637 335.438 489.051 336.343 489.731H336.285Z" fill="#F55F44"/>
<g opacity="0.1">
<path d="M482.475 379.186H415.6V381.783H482.475V379.186Z" fill="black"/>
</g>
</g>
<defs>
<linearGradient id="paint0_linear_538_314" x1="449.719" y1="698.629" x2="449.719" y2="279.197" gradientUnits="userSpaceOnUse">
<stop stop-color="#808080" stop-opacity="0.25"/>
<stop offset="0.54" stop-color="#808080" stop-opacity="0.12"/>
<stop offset="1" stop-color="#808080" stop-opacity="0.1"/>
</linearGradient>
<linearGradient id="paint1_linear_538_314" x1="386.584" y1="648.732" x2="386.584" y2="689.396" gradientUnits="userSpaceOnUse">
<stop stop-color="#E0E0E0"/>
<stop offset="0.31" stop-color="#FCCC63"/>
<stop offset="0.77" stop-color="#F55F44"/>
</linearGradient>
<linearGradient id="paint2_linear_538_314" x1="435.273" y1="648.732" x2="435.273" y2="689.396" gradientUnits="userSpaceOnUse">
<stop stop-color="#E0E0E0"/>
<stop offset="0.31" stop-color="#FCCC63"/>
<stop offset="0.77" stop-color="#F55F44"/>
</linearGradient>
<linearGradient id="paint3_linear_538_314" x1="465.769" y1="648.732" x2="465.769" y2="689.396" gradientUnits="userSpaceOnUse">
<stop stop-color="#E0E0E0"/>
<stop offset="0.31" stop-color="#FCCC63"/>
<stop offset="0.77" stop-color="#F55F44"/>
</linearGradient>
<linearGradient id="paint4_linear_538_314" x1="514.991" y1="648.732" x2="514.991" y2="689.396" gradientUnits="userSpaceOnUse">
<stop stop-color="#E0E0E0"/>
<stop offset="0.31" stop-color="#FCCC63"/>
<stop offset="0.77" stop-color="#F55F44"/>
</linearGradient>
<linearGradient id="paint5_linear_538_314" x1="449.72" y1="748.006" x2="449.72" y2="626.423" gradientUnits="userSpaceOnUse">
<stop stop-color="#808080" stop-opacity="0.25"/>
<stop offset="0.54" stop-color="#808080" stop-opacity="0.12"/>
<stop offset="1" stop-color="#808080" stop-opacity="0.1"/>
</linearGradient>
<linearGradient id="paint6_linear_538_314" x1="339.064" y1="628.812" x2="339.064" y2="723.386" gradientUnits="userSpaceOnUse">
<stop stop-color="#F2F2F2"/>
<stop offset="0.31" stop-color="#E6E6E6"/>
<stop offset="0.77" stop-color="#CCCCCC"/>
</linearGradient>
<linearGradient id="paint7_linear_538_314" x1="338.83" y1="642.051" x2="338.83" y2="745.611" gradientUnits="userSpaceOnUse">
<stop stop-color="#F2F2F2"/>
<stop offset="0.31" stop-color="#E6E6E6"/>
<stop offset="0.77" stop-color="#CCCCCC"/>
</linearGradient>
<linearGradient id="paint8_linear_538_314" x1="549.26" y1="642.051" x2="549.26" y2="745.611" gradientUnits="userSpaceOnUse">
<stop stop-color="#F2F2F2"/>
<stop offset="0.31" stop-color="#E6E6E6"/>
<stop offset="0.77" stop-color="#CCCCCC"/>
</linearGradient>
<linearGradient id="paint9_linear_538_314" x1="546.656" y1="651.037" x2="546.656" y2="745.61" gradientUnits="userSpaceOnUse">
<stop stop-color="#F2F2F2"/>
<stop offset="0.31" stop-color="#E6E6E6"/>
<stop offset="0.77" stop-color="#CCCCCC"/>
</linearGradient>
<linearGradient id="paint10_linear_538_314" x1="445.934" y1="660.023" x2="445.934" y2="745.617" gradientUnits="userSpaceOnUse">
<stop stop-color="#F2F2F2"/>
<stop offset="0.31" stop-color="#E6E6E6"/>
<stop offset="0.77" stop-color="#CCCCCC"/>
</linearGradient>
<linearGradient id="paint11_linear_538_314" x1="504.57" y1="694.071" x2="504.57" y2="745.617" gradientUnits="userSpaceOnUse">
<stop stop-color="#F2F2F2"/>
<stop offset="0.31" stop-color="#E6E6E6"/>
<stop offset="0.77" stop-color="#CCCCCC"/>
</linearGradient>
<linearGradient id="paint12_linear_538_314" x1="593.95" y1="684.611" x2="593.95" y2="745.617" gradientUnits="userSpaceOnUse">
<stop stop-color="#F2F2F2"/>
<stop offset="0.31" stop-color="#E6E6E6"/>
<stop offset="0.77" stop-color="#CCCCCC"/>
</linearGradient>
<linearGradient id="paint13_linear_538_314" x1="305.49" y1="684.611" x2="305.49" y2="745.617" gradientUnits="userSpaceOnUse">
<stop stop-color="#F2F2F2"/>
<stop offset="0.31" stop-color="#E6E6E6"/>
<stop offset="0.77" stop-color="#CCCCCC"/>
</linearGradient>
<linearGradient id="paint14_linear_538_314" x1="623.264" y1="648.362" x2="623.264" y2="631.014" gradientUnits="userSpaceOnUse">
<stop stop-color="#808080" stop-opacity="0.25"/>
<stop offset="0.54" stop-color="#808080" stop-opacity="0.12"/>
<stop offset="1" stop-color="#808080" stop-opacity="0.1"/>
</linearGradient>
<linearGradient id="paint15_linear_538_314" x1="623.264" y1="631.65" x2="623.264" y2="647.726" gradientUnits="userSpaceOnUse">
<stop stop-color="#F2F2F2"/>
<stop offset="0.31" stop-color="#E6E6E6"/>
<stop offset="0.77" stop-color="#CCCCCC"/>
</linearGradient>
<linearGradient id="paint16_linear_538_314" x1="662.987" y1="732.846" x2="662.987" y2="713.932" gradientUnits="userSpaceOnUse">
<stop stop-color="#808080" stop-opacity="0.25"/>
<stop offset="0.54" stop-color="#808080" stop-opacity="0.12"/>
<stop offset="1" stop-color="#808080" stop-opacity="0.1"/>
</linearGradient>
<linearGradient id="paint17_linear_538_314" x1="662.987" y1="714.4" x2="662.987" y2="732.372" gradientUnits="userSpaceOnUse">
<stop stop-color="#F2F2F2"/>
<stop offset="0.31" stop-color="#E0E0E0"/>
<stop offset="0.77" stop-color="#B3B3B3"/>
</linearGradient>
<linearGradient id="paint18_linear_538_314" x1="258.203" y1="679.872" x2="258.203" y2="659.082" gradientUnits="userSpaceOnUse">
<stop stop-color="#808080" stop-opacity="0.25"/>
<stop offset="0.54" stop-color="#808080" stop-opacity="0.12"/>
<stop offset="1" stop-color="#808080" stop-opacity="0.1"/>
</linearGradient>
<linearGradient id="paint19_linear_538_314" x1="258.203" y1="659.549" x2="258.203" y2="679.411" gradientUnits="userSpaceOnUse">
<stop stop-color="#F2F2F2"/>
<stop offset="0.31" stop-color="#E6E6E6"/>
<stop offset="0.77" stop-color="#CCCCCC"/>
</linearGradient>
<linearGradient id="paint20_linear_538_314" x1="627.049" y1="305.032" x2="627.049" y2="248" gradientUnits="userSpaceOnUse">
<stop stop-color="#808080" stop-opacity="0.25"/>
<stop offset="0.54" stop-color="#808080" stop-opacity="0.12"/>
<stop offset="1" stop-color="#808080" stop-opacity="0.1"/>
</linearGradient>
<linearGradient id="paint21_linear_538_314" x1="662.987" y1="714.4" x2="662.987" y2="732.372" gradientUnits="userSpaceOnUse">
<stop stop-color="#F2F2F2"/>
<stop offset="0.31" stop-color="#E6E6E6"/>
<stop offset="0.77" stop-color="#CCCCCC"/>
</linearGradient>
<linearGradient id="paint22_linear_538_314" x1="325.786" y1="495.919" x2="325.786" y2="468.753" gradientUnits="userSpaceOnUse">
<stop stop-color="#808080" stop-opacity="0.25"/>
<stop offset="0.54" stop-color="#808080" stop-opacity="0.12"/>
<stop offset="1" stop-color="#808080" stop-opacity="0.1"/>
</linearGradient>
<clipPath id="clip0_538_314">
<rect width="600.696" height="500" fill="white" transform="translate(162 248)"/>
</clipPath>
</defs>
</svg>
